<svg xmlns="http://www.w3.org/2000/svg" width="807.02" height="429.87" viewBox="0 0 807.02 429.87"><defs><style>.a{fill:#e6e6e6;}</style></defs><title>Asset 1</title><path class="a" d="M298.86,193c-.48-12.19,59.59-31,100.69-42.4A16.91,16.91,0,0,0,404,120L234.06,13.35,0,140.73s190.43,1,118.74,1.5L104.46,400.35c51.53-8.08,112-22.6,115.56-49.68,3.07-23.38-38.57-38.65-34.56-59.4C193.05,252,350.84,261.79,355,233,357.05,219,299.57,211,298.86,193Z"/><path class="a" d="M699.14,106.56H807L637.16,0,462.82,94.88A27.08,27.08,0,0,0,449,118.35a.49.49,0,0,0,0,.12c-1,14.78,42.47,27.38,40,47.52-2.85,22.87-61.39,26.9-61.56,42.12-.23,20.48,105.68,27.94,108,55.08,1.84,21.5-63.59,28.79-67,59.4-4.27,38.75,94.82,79.49,148,95,37.17,10.88,55.76,16.32,71.28,8.64,60.74-30.06,36.62-191.63,30.24-234.36A643.24,643.24,0,0,0,699.14,106.56Z"/></svg>