<svg xmlns="http://www.w3.org/2000/svg" width="1920" height="1080" viewBox="0 0 1920 1080"><defs><style>.a{fill:#1b1464;}.b{fill:#09083f;}.c{fill:#29abe2;}</style></defs><title>bg-art1</title><polygon class="a" points="0 957.24 232 957.24 357 828 434 899 485 867 594 959 843 957 889 925 938 953 1301 953 1447 807 1555 915 1590 880 1623 913 1673 856 1744 957 1920 957.24 1920 1080 0 1080 0 957.24"/><polygon class="b" points="495 959 594 959 485 867 434 899 495 959"/><polygon class="c" points="232 957 357 828 247 957 232 957"/><polygon class="c" points="1301 953 1447 807 1318.32 953 1301 953"/></svg>