<svg xmlns="http://www.w3.org/2000/svg" xmlns:xlink="http://www.w3.org/1999/xlink" width="512" height="512" viewBox="0 0 512 512"><defs><style>.a{fill:url(#a);}.b{fill:#e6e6e6;}.c{fill:#ccc;}</style><radialGradient id="a" cx="348.29" cy="74.1" fx="157.24155640757456" fy="29.04343660679026" r="476.25" gradientUnits="userSpaceOnUse"><stop offset="0" stop-color="#4a9ac6"/><stop offset="1" stop-color="#f2f2f2"/></radialGradient></defs><title>card-back</title><path class="a" d="M-107.16,293.52C45.19,273,156.39,282.59,232,296.31c18,3.27,67,12.77,130.64,5.53C397,297.93,509.84,285,538.18,216c6-14.53,4.59-37,1.58-81.25-1.53-22.54-7-103.17-17.28-132.84C483.09-111.8,116.85-217.84-46.68-32.64-152.11,86.76-113.71,265.09-107.16,293.52Z"/><path class="b" d="M261.88,223.61C314.62,260.23,369,281.1,417.63,293.05c-16.36,3.16-41.33,7.51-72,10.84-49.24,5.34-68.61,3.94-126.62,5.83-68.51,2.23-141.69,10-141.84,18.48C77.08,332.63,97,335,96.6,338.52c-.94,7.9-99.11,17.06-122.64,25-.16.06-8.08,5.28-8.4,5.28-1.21,0-2.28-2.28-3.33-6.15L49.08,193.13,70.32,170l25.14-49.93a14.19,14.19,0,0,1,8.19,2.15l139,87.18Q251.87,216.63,261.88,223.61Z"/><path class="c" d="M95.46,120.11,70.32,170,49.08,193.13-37.77,362.61C-44.5,337.73-50.1,245.78-82.25,245.55c-14.7-.1-19.62-19.7-6.71-26.73l178.25-97A14,14,0,0,1,95.46,120.11Z"/></svg>