<svg xmlns="http://www.w3.org/2000/svg" xmlns:xlink="http://www.w3.org/1999/xlink" width="1920" height="1080" viewBox="0 0 1920 1080"><defs><style>.a,.b,.c{opacity:0.6;}.a{fill:url(#a);}.b{fill:url(#b);}.c{fill:url(#c);}</style><linearGradient id="a" x1="222.28" y1="490.07" x2="392.81" y2="490.07" gradientUnits="userSpaceOnUse"><stop offset="0" stop-color="#662d91"/><stop offset="1" stop-color="#ff7bac"/></linearGradient><linearGradient id="b" x1="-116.86" y1="38.37" x2="869.09" y2="38.37" gradientUnits="userSpaceOnUse"><stop offset="0" stop-color="#1b1464"/><stop offset="1" stop-color="#ed1e79"/></linearGradient><linearGradient id="c" x1="1406.14" y1="835.71" x2="1784.51" y2="1294.07" gradientUnits="userSpaceOnUse"><stop offset="0" stop-color="#d4145a"/><stop offset="0.99" stop-color="#f7931e"/></linearGradient></defs><title>sign-in-bg</title><path class="a" d="M226.53,423.18c-19.65,20.72,31.9,140.63,92.68,136.47,43.87-3,84.77-70.12,70.82-94.66-5.28-9.29-16.61-9.31-44.3-14.22C260.17,435.57,236.83,412.31,226.53,423.18Z"/><path class="b" d="M-110.68-19.48c28.79-111.07,152-161.1,230.4-193,285.16-115.83,551.79,33.94,599,60.48,63.85,35.86,158.51,89,149.76,135.36-16.21,85.87-359.81.52-576,210.24-75.17,72.92-83,131.12-144,138.24C27.63,346-152.55,142-110.68-19.48Z"/><path class="c" d="M717.8,1107.08c-17.52-81.33,84.59-196.52,201.6-239,242.11-88,432.84,177,601.92,83.52C1634.54,889,1583.59,751.06,1757.48,580c43.66-42.94,163.34-160.65,241.92-129.6,116.44,46,165.06,427.55-5.76,650.88-204.9,267.88-643.48,200.88-921.6,158.4C945.66,1240.41,739.74,1209,717.8,1107.08Z"/></svg>