<svg xmlns="http://www.w3.org/2000/svg" width="128" height="128" viewBox="0 0 128 128"><defs><style>.a{fill:#d4145a;}.b{fill:#2e3192;}.c{fill:#fff;}.d{fill:#662d91;}.e{fill:#9e005d;}.f{fill:#00a99d;}</style></defs><title>success-art</title><polygon class="a" points="87.96 46.76 59.68 69.04 48.54 54.9 43.83 58.62 54.97 72.75 58.68 77.47 91.67 51.47 87.96 46.76"/><polygon class="b" points="84.33 42.6 61.5 70.43 47.58 59.02 43.78 63.66 57.7 75.07 62.33 78.88 88.97 46.41 84.33 42.6"/><polygon class="c" points="86.09 44.39 60.64 69.85 47.91 57.12 43.66 61.36 56.39 74.09 60.64 78.33 90.33 48.64 86.09 44.39"/><circle class="a" cx="27" cy="33" r="2"/><circle class="a" cx="111.5" cy="93.5" r="5.5"/><circle class="d" cx="47" cy="88" r="2"/><circle class="d" cx="22.5" cy="82.5" r="4.5"/><circle class="d" cx="45.5" cy="114.5" r="3.5"/><circle class="d" cx="82" cy="18" r="5"/><circle class="e" cx="102.5" cy="51.5" r="1.5"/><circle class="e" cx="60.5" cy="37.5" r="2.5"/><circle class="e" cx="103" cy="77" r="3"/><circle class="e" cx="87.5" cy="108.5" r="3.5"/><circle class="f" cx="39" cy="20" r="3"/><circle class="f" cx="85" cy="83" r="2"/><circle class="f" cx="32.5" cy="101.5" r="3.5"/><circle class="f" cx="112" cy="113" r="1"/><circle class="f" cx="115" cy="29" r="2"/><circle class="f" cx="18" cy="53" r="1"/><circle class="f" cx="11" cy="5" r="1"/></svg>